<svg width="118" height="18" viewBox="0 0 118 18" fill="none" xmlns="http://www.w3.org/2000/svg">
<g clip-path="url(#clip0_2116_2139)">
<path d="M11.0601 1.3861L16.8634 6.82092L14.9371 14.437L7.20956 16.6182L1.40841 11.1855L3.33478 3.56948L11.0601 1.3861ZM11.4083 0L10.7118 0.186963L2.97992 2.38109L2.28123 2.5788L2.09608 3.27077L0.176327 10.889L0 11.5766L0.52898 12.0709L6.33233 17.5057L6.86131 18L7.5578 17.8087L15.2875 15.6211L15.9862 15.4234L16.1625 14.7292L18.0889 7.11318L18.2696 6.41905L17.7407 5.92478L11.9395 0.49212L11.4083 0Z" fill="#555555"/>
<path d="M31.7504 13.7241C31.3866 13.9631 30.9749 14.1242 30.5426 14.1969C30.0469 14.2933 29.5426 14.3415 29.0372 14.3408C28.4375 14.3434 27.8415 14.2482 27.2739 14.0593C26.7119 13.872 26.203 13.5584 25.7884 13.1438C25.3331 12.6771 24.9865 12.12 24.7723 11.5106C24.502 10.7266 24.3744 9.90262 24.3954 9.07579C24.3703 8.22602 24.514 7.37953 24.8186 6.58296C25.0611 5.97196 25.4371 5.41977 25.9206 4.96476C26.3503 4.5673 26.8642 4.26654 27.426 4.08367C27.9638 3.90769 28.5272 3.8177 29.0945 3.8172C29.5989 3.81024 30.1029 3.84909 30.5999 3.93324C30.9468 3.99325 31.287 4.08535 31.616 4.20832L31.2148 5.88453C30.956 5.7684 30.6813 5.6895 30.3993 5.65029C30.0242 5.59744 29.6454 5.57301 29.2664 5.57723C28.8905 5.56397 28.5164 5.63451 28.1727 5.78347C27.8289 5.93243 27.5245 6.15588 27.2827 6.43683C26.7831 7.00989 26.5333 7.89313 26.5333 9.08654C26.5283 9.56776 26.5884 10.0475 26.7119 10.5135C26.814 10.9075 26.9953 11.2778 27.2453 11.603C27.4851 11.9054 27.7947 12.1484 28.1489 12.3122C28.5435 12.4878 28.9738 12.5738 29.4075 12.5636C29.7872 12.5719 30.1663 12.5285 30.5338 12.4347C30.8143 12.3583 31.0833 12.2463 31.3338 12.1016L31.7504 13.7241Z" fill="#555555"/>
<path d="M35.0452 10.3784L31.6465 4.01953H34.071L35.9687 7.81896L36.1759 8.89346H36.2486L36.469 7.79532L38.3072 4.02383H40.4849L37.0906 10.3677V14.1349H35.0606L35.0452 10.3784Z" fill="#555555"/>
<path d="M48.6857 6.3743C48.6846 6.6265 48.652 6.87763 48.5887 7.12215C48.5262 7.36784 48.4179 7.60022 48.2691 7.80768C48.1169 8.02421 47.9257 8.21206 47.7048 8.36212C47.4449 8.53113 47.1549 8.65138 46.8497 8.7167V8.80911C47.1372 8.85899 47.4172 8.9442 47.6828 9.06269C47.9398 9.17378 48.1719 9.33294 48.3661 9.53117C48.5699 9.7442 48.7281 9.99481 48.8311 10.2683C48.9511 10.5971 49.0086 10.9444 49.0009 11.2934C49.0158 11.769 48.8985 12.2398 48.6614 12.6558C48.4403 13.0309 48.1314 13.3497 47.76 13.5863C47.3612 13.8347 46.9223 14.0156 46.4617 14.1214C45.9719 14.238 45.4694 14.2964 44.9652 14.2955H44.3194C44.0578 14.2955 43.7764 14.2883 43.4752 14.274C43.174 14.2597 42.8676 14.2382 42.5561 14.2095C42.2692 14.1848 41.9843 14.1417 41.7031 14.0806V4.09206C41.8905 4.06198 42.1065 4.03404 42.3489 4.0061C42.5914 3.97817 42.8492 3.95238 43.127 3.93304C43.4047 3.9137 43.6868 3.89865 43.9799 3.89006C44.2731 3.88146 44.5596 3.87502 44.8461 3.87502C45.32 3.87416 45.7932 3.91009 46.2612 3.98246C46.6881 4.04607 47.1018 4.17594 47.4866 4.36714C47.8451 4.54113 48.1494 4.80523 48.3683 5.13218C48.5953 5.50748 48.7056 5.93902 48.6857 6.3743ZM44.3436 8.26756C44.4825 8.26756 44.6434 8.26756 44.8263 8.25252C44.9739 8.24565 45.1211 8.2313 45.2671 8.20954C45.6232 8.10892 45.9541 7.93773 46.2391 7.70668C46.3722 7.59617 46.478 7.45781 46.5486 7.30191C46.6192 7.146 46.6528 6.97657 46.6469 6.80625C46.6555 6.59213 46.6045 6.37974 46.4992 6.19163C46.4039 6.03254 46.269 5.89948 46.1069 5.80481C45.9353 5.70665 45.7473 5.63898 45.5515 5.60496C45.3334 5.56539 45.112 5.54596 44.8902 5.54693C44.6331 5.54693 44.3958 5.55195 44.1783 5.56198C44.0094 5.5671 43.8409 5.58145 43.6736 5.60496V8.26756H44.3436ZM44.9872 12.6171C45.2251 12.6174 45.462 12.5885 45.6925 12.5312C45.9085 12.4791 46.113 12.3896 46.2964 12.2668C46.4723 12.1502 46.6191 11.9968 46.7262 11.8177C46.8373 11.6204 46.8928 11.398 46.8871 11.173C46.9013 10.9123 46.8353 10.6534 46.6976 10.4295C46.5735 10.2465 46.4025 10.0984 46.2017 9.99966C45.9874 9.89626 45.7561 9.83077 45.5184 9.80625C45.2674 9.77781 45.015 9.76346 44.7624 9.76327H43.7V12.5312C43.7756 12.5554 43.8542 12.5698 43.9337 12.5742C44.0395 12.5842 44.1533 12.5913 44.2753 12.5956L44.6544 12.6107L44.9872 12.6171Z" fill="#555555"/>
<path d="M50.8398 4.01953H56.9892V5.77311H52.8742V8.13701H56.6212V9.89919H52.8742V12.3705H57.062V14.1327H50.8398V4.01953Z" fill="#555555"/>
<path d="M58.9512 4.11609C59.1789 4.07741 59.4236 4.04159 59.6851 4.00864C59.9467 3.97569 60.209 3.94919 60.472 3.92913C60.7335 3.91051 60.9877 3.89618 61.2346 3.88615C61.4815 3.87612 61.7085 3.87111 61.9157 3.87111C62.3956 3.87021 62.8745 3.91338 63.3461 4.00005C63.7898 4.07766 64.2164 4.22962 64.6068 4.44919C64.9737 4.66108 65.2776 4.96253 65.4885 5.32383C65.7249 5.75152 65.8398 6.23302 65.8213 6.71853C65.8544 7.43752 65.6463 8.14746 65.2284 8.74073C64.8334 9.25671 64.2773 9.63376 63.6437 9.81523L64.36 10.2622L66.7316 14.1304H64.3997L62.0369 10.1784L60.9701 9.99145V14.139H58.9512V4.11609ZM62.0633 5.63328C61.8561 5.63328 61.6512 5.63328 61.4484 5.64833C61.291 5.65208 61.1345 5.67152 60.9811 5.70635V8.64618H61.8407C62.3207 8.67032 62.7953 8.53801 63.1896 8.2701C63.5291 8.01939 63.6988 7.60535 63.6988 7.02798C63.7076 6.84016 63.6748 6.6527 63.6025 6.47838C63.5302 6.30407 63.4202 6.14702 63.28 6.01795C62.9356 5.74862 62.4992 5.61654 62.0589 5.64833L62.0633 5.63328Z" fill="#555555"/>
<path d="M75.194 8.78194L74.3785 7.19169H74.3036L74.5416 8.78194V14.0577H72.6152V3.86719H74.0964L78.024 9.25687L78.8087 10.802H78.8814L78.6434 9.25687V3.94025H80.5698V14.1286H79.0864L75.194 8.78194Z" fill="#555555"/>
<path d="M82.7246 3.94141H88.8762V5.70358H84.7546V8.06748H88.5015V9.82966H84.7546V12.301H88.9424V14.0589H82.7246V3.94141Z" fill="#555555"/>
<path d="M94.2391 9.88592L94.5058 11.6051H94.5807L94.8782 9.86228L96.8619 3.9375H98.9955L95.1427 14.1302H93.6902L89.8066 3.9418H92.1628L94.2391 9.88592Z" fill="#555555"/>
<path d="M99.2506 8.99756C99.2506 7.31131 99.6311 6.01332 100.392 5.10358C101.153 4.19384 102.24 3.7404 103.652 3.74326C104.32 3.72896 104.983 3.85732 105.594 4.11934C106.136 4.36274 106.609 4.7316 106.971 5.19384C107.354 5.69008 107.631 6.25549 107.787 6.85716C107.972 7.55906 108.061 8.28154 108.054 9.00616C108.054 10.6924 107.671 11.9904 106.905 12.9001C106.14 13.8099 105.055 14.2647 103.652 14.2647C102.979 14.2801 102.311 14.1518 101.695 13.8887C101.154 13.647 100.682 13.2777 100.324 12.8142C99.9449 12.3153 99.6701 11.7487 99.5151 11.1466C99.331 10.4446 99.2421 9.72208 99.2506 8.99756ZM101.384 8.99756C101.38 9.4706 101.424 9.94286 101.516 10.4073C101.59 10.7945 101.728 11.1675 101.924 11.5119C102.093 11.8059 102.335 12.0542 102.627 12.2339C102.936 12.4129 103.291 12.503 103.65 12.494C103.978 12.5073 104.304 12.4387 104.597 12.2947C104.89 12.1506 105.141 11.9359 105.325 11.6709C105.72 11.1222 105.918 10.2311 105.918 8.99756C105.921 8.53697 105.879 8.07714 105.792 7.62435C105.721 7.2358 105.589 6.8603 105.4 6.51117C105.234 6.21063 104.991 5.95682 104.695 5.77407C104.247 5.52545 103.721 5.44695 103.218 5.55366C102.714 5.66038 102.269 5.94477 101.968 6.35215C101.582 6.90945 101.389 7.79341 101.389 9.00401L101.384 8.99756Z" fill="#555555"/>
<path d="M109.876 3.94043C110.083 3.91177 110.317 3.88742 110.579 3.86736C110.84 3.8473 111.11 3.83298 111.388 3.82438C111.664 3.81435 111.933 3.80719 112.196 3.80289H112.9C113.699 3.78266 114.496 3.90801 115.249 4.17252C115.858 4.39382 116.402 4.75591 116.836 5.22768C117.248 5.69782 117.549 6.25016 117.718 6.84587C117.912 7.5184 118.007 8.21452 118 8.91321C118.002 9.58159 117.912 10.2472 117.733 10.8924C117.567 11.5111 117.266 12.0878 116.851 12.5837C116.407 13.0966 115.846 13.5019 115.214 13.7678C114.418 14.089 113.562 14.242 112.701 14.2169C112.542 14.2169 112.333 14.2169 112.071 14.2019L111.255 14.1654L110.449 14.1224C110.191 14.1081 109.999 14.0916 109.871 14.073L109.876 3.94043ZM113.069 5.55862C112.852 5.55862 112.631 5.56364 112.408 5.57367C112.242 5.57804 112.076 5.5924 111.912 5.61665V12.3946C111.978 12.4074 112.045 12.4146 112.113 12.4161L112.417 12.4311L112.728 12.4462H112.948C113.441 12.4624 113.931 12.3606 114.374 12.1496C114.739 11.9656 115.05 11.6942 115.278 11.3609C115.508 11.0158 115.666 10.6304 115.745 10.2262C115.834 9.7911 115.878 9.34835 115.877 8.90461C115.878 8.50296 115.84 8.10212 115.763 7.70762C115.689 7.32486 115.539 6.95985 115.322 6.63312C115.101 6.30837 114.803 6.04067 114.453 5.85304C114.026 5.64043 113.549 5.53902 113.069 5.55862Z" fill="#555555"/>
</g>
<defs>
<clipPath id="clip0_2116_2139">
<rect width="118" height="18" fill="white"/>
</clipPath>
</defs>
</svg>
