<svg width="20" height="18" viewBox="0 0 20 18" fill="none" xmlns="http://www.w3.org/2000/svg">
<path fill-rule="evenodd" clip-rule="evenodd" d="M12.1317 1.27169C12.7638 1.0098 13.4412 0.875 14.1254 0.875C14.8096 0.875 15.4871 1.0098 16.1191 1.27169C16.7512 1.53359 17.3255 1.91745 17.8091 2.40135C18.2929 2.88498 18.6767 3.45917 18.9386 4.09115C19.2005 4.72321 19.3353 5.40068 19.3353 6.08485C19.3353 6.76903 19.2005 7.4465 18.9386 8.07856C18.6767 8.71058 18.2929 9.28481 17.809 9.76846C17.809 9.7685 17.8091 9.76843 17.809 9.76846L10.4424 17.1351C10.1983 17.3792 9.80256 17.3792 9.55848 17.1351L2.19182 9.76846C1.21486 8.79151 0.666016 7.46648 0.666016 6.08485C0.666016 4.70323 1.21486 3.3782 2.19182 2.40125C3.16877 1.42429 4.4938 0.875446 5.87542 0.875446C7.25705 0.875446 8.58208 1.42429 9.55903 2.40125L10.0004 2.84264L10.4417 2.40135C10.9254 1.91745 11.4997 1.53359 12.1317 1.27169ZM16.925 3.28503C16.5575 2.91726 16.121 2.62553 15.6406 2.42649C15.1603 2.22745 14.6454 2.125 14.1254 2.125C13.6055 2.125 13.0906 2.22745 12.6102 2.42649C12.1298 2.62553 11.6934 2.91726 11.3258 3.28503L10.4424 4.16846C10.1983 4.41254 9.80256 4.41254 9.55848 4.16846L8.67515 3.28513C7.93262 2.5426 6.92552 2.12545 5.87542 2.12545C4.82532 2.12545 3.81823 2.5426 3.0757 3.28513C2.33317 4.02766 1.91602 5.03475 1.91602 6.08485C1.91602 7.13496 2.33317 8.14205 3.0757 8.88458L10.0004 15.8093L16.9251 8.88458C17.2929 8.51699 17.5847 8.08044 17.7838 7.60007C17.9828 7.1197 18.0853 6.60483 18.0853 6.08485C18.0853 5.56488 17.9828 5.05001 17.7838 4.56964C17.5847 4.08927 17.2928 3.65262 16.925 3.28503Z" fill="#D9A95E"/>
</svg>
